<mxfile host="app.diagrams.net" agent="Mozilla/5.0 (Windows NT 10.0; Win64; x64; rv:131.0) Gecko/20100101 Firefox/131.0" version="24.7.17">
  <diagram name="Страница — 3" id="0gUbXzT9o8zhCfuLUeTF">
    <mxGraphModel dx="989" dy="501" grid="1" gridSize="10" guides="1" tooltips="1" connect="1" arrows="1" fold="1" page="1" pageScale="1" pageWidth="827" pageHeight="1169" math="0" shadow="0">
      <root>
        <mxCell id="0" />
        <mxCell id="1" parent="0" />
        <mxCell id="SsDi411Ci2IOwW0wJX5i-1" value=":Client" style="shape=umlActor;verticalLabelPosition=bottom;verticalAlign=top;html=1;" parent="1" vertex="1">
          <mxGeometry x="10" y="335" width="30" height="60" as="geometry" />
        </mxCell>
        <mxCell id="SsDi411Ci2IOwW0wJX5i-2" value=":DetailesPage" style="shape=umlBoundary;whiteSpace=wrap;html=1;" parent="1" vertex="1">
          <mxGeometry x="130" y="320" width="110" height="90" as="geometry" />
        </mxCell>
        <mxCell id="SsDi411Ci2IOwW0wJX5i-6" value=":OrderController" style="ellipse;shape=umlControl;whiteSpace=wrap;html=1;" parent="1" vertex="1">
          <mxGeometry x="540" y="310" width="90" height="100" as="geometry" />
        </mxCell>
        <mxCell id="SsDi411Ci2IOwW0wJX5i-8" value="client :Orde" style="ellipse;shape=umlEntity;whiteSpace=wrap;html=1;" parent="1" vertex="1">
          <mxGeometry x="700" y="320" width="90" height="90" as="geometry" />
        </mxCell>
        <mxCell id="SsDi411Ci2IOwW0wJX5i-10" value=":OrderPage" style="shape=umlBoundary;whiteSpace=wrap;html=1;" parent="1" vertex="1">
          <mxGeometry x="230" y="460" width="110" height="90" as="geometry" />
        </mxCell>
        <mxCell id="SsDi411Ci2IOwW0wJX5i-15" value="&lt;span style=&quot;color: rgb(0, 0, 0); font-family: Helvetica; font-size: 11px; font-style: normal; font-variant-ligatures: normal; font-variant-caps: normal; font-weight: 400; letter-spacing: normal; orphans: 2; text-align: center; text-indent: 0px; text-transform: none; widows: 2; word-spacing: 0px; -webkit-text-stroke-width: 0px; white-space: nowrap; background-color: rgb(255, 255, 255); text-decoration-thickness: initial; text-decoration-style: initial; text-decoration-color: initial; display: inline !important; float: none;&quot;&gt;1: InputDetailes&lt;/span&gt;" style="text;whiteSpace=wrap;html=1;" parent="1" vertex="1">
          <mxGeometry x="50" y="280" width="80" height="30" as="geometry" />
        </mxCell>
        <mxCell id="SsDi411Ci2IOwW0wJX5i-16" value="" style="endArrow=none;html=1;rounded=0;entryX=0;entryY=0.498;entryDx=0;entryDy=0;entryPerimeter=0;" parent="1" source="SsDi411Ci2IOwW0wJX5i-1" target="SsDi411Ci2IOwW0wJX5i-2" edge="1">
          <mxGeometry width="50" height="50" relative="1" as="geometry">
            <mxPoint x="80" y="350" as="sourcePoint" />
            <mxPoint x="130" y="300" as="targetPoint" />
          </mxGeometry>
        </mxCell>
        <mxCell id="SsDi411Ci2IOwW0wJX5i-17" value="" style="endArrow=open;endFill=1;endSize=12;html=1;rounded=0;" parent="1" edge="1">
          <mxGeometry width="160" relative="1" as="geometry">
            <mxPoint x="80" y="350" as="sourcePoint" />
            <mxPoint x="110" y="350" as="targetPoint" />
          </mxGeometry>
        </mxCell>
        <mxCell id="SsDi411Ci2IOwW0wJX5i-18" value="&lt;span style=&quot;color: rgb(0, 0, 0); font-family: Helvetica; font-size: 11px; font-style: normal; font-variant-ligatures: normal; font-variant-caps: normal; font-weight: 400; letter-spacing: normal; orphans: 2; text-align: center; text-indent: 0px; text-transform: none; widows: 2; word-spacing: 0px; -webkit-text-stroke-width: 0px; white-space: nowrap; background-color: rgb(255, 255, 255); text-decoration-thickness: initial; text-decoration-style: initial; text-decoration-color: initial; display: inline !important; float: none;&quot;&gt;2:ChoosProducts&lt;/span&gt;" style="text;whiteSpace=wrap;html=1;" parent="1" vertex="1">
          <mxGeometry x="50" y="310" width="90" height="30" as="geometry" />
        </mxCell>
        <mxCell id="SsDi411Ci2IOwW0wJX5i-19" value="" style="endArrow=none;html=1;rounded=0;entryX=0.001;entryY=0.545;entryDx=0;entryDy=0;entryPerimeter=0;exitX=1.013;exitY=0.497;exitDx=0;exitDy=0;exitPerimeter=0;" parent="1" source="SsDi411Ci2IOwW0wJX5i-2" target="OHAG2OCHnz7hjvBP90Fn-3" edge="1">
          <mxGeometry width="50" height="50" relative="1" as="geometry">
            <mxPoint x="260" y="390" as="sourcePoint" />
            <mxPoint x="330.22" y="365.36" as="targetPoint" />
          </mxGeometry>
        </mxCell>
        <mxCell id="SsDi411Ci2IOwW0wJX5i-20" value="" style="endArrow=open;endFill=1;endSize=12;html=1;rounded=0;" parent="1" edge="1">
          <mxGeometry width="160" relative="1" as="geometry">
            <mxPoint x="270" y="350" as="sourcePoint" />
            <mxPoint x="300" y="350" as="targetPoint" />
          </mxGeometry>
        </mxCell>
        <mxCell id="SsDi411Ci2IOwW0wJX5i-21" value="&lt;span style=&quot;color: rgb(0, 0, 0); font-family: Helvetica; font-size: 11px; font-style: normal; font-variant-ligatures: normal; font-variant-caps: normal; font-weight: 400; letter-spacing: normal; orphans: 2; text-align: center; text-indent: 0px; text-transform: none; widows: 2; word-spacing: 0px; -webkit-text-stroke-width: 0px; white-space: nowrap; background-color: rgb(255, 255, 255); text-decoration-thickness: initial; text-decoration-style: initial; text-decoration-color: initial; display: inline !important; float: none;&quot;&gt;4: CreateNewOrder&lt;/span&gt;" style="text;whiteSpace=wrap;html=1;" parent="1" vertex="1">
          <mxGeometry x="440" y="320" width="100" height="30" as="geometry" />
        </mxCell>
        <mxCell id="SsDi411Ci2IOwW0wJX5i-22" value="" style="endArrow=none;html=1;rounded=0;exitX=0.995;exitY=0.545;exitDx=0;exitDy=0;exitPerimeter=0;entryX=-0.016;entryY=0.553;entryDx=0;entryDy=0;entryPerimeter=0;" parent="1" source="OHAG2OCHnz7hjvBP90Fn-3" target="SsDi411Ci2IOwW0wJX5i-6" edge="1">
          <mxGeometry width="50" height="50" relative="1" as="geometry">
            <mxPoint x="440.22" y="364.1" as="sourcePoint" />
            <mxPoint x="550" y="400" as="targetPoint" />
          </mxGeometry>
        </mxCell>
        <mxCell id="SsDi411Ci2IOwW0wJX5i-23" value="" style="endArrow=open;endFill=1;endSize=12;html=1;rounded=0;" parent="1" edge="1">
          <mxGeometry width="160" relative="1" as="geometry">
            <mxPoint x="475" y="349.44" as="sourcePoint" />
            <mxPoint x="505" y="349.44" as="targetPoint" />
          </mxGeometry>
        </mxCell>
        <mxCell id="SsDi411Ci2IOwW0wJX5i-25" value="&lt;span style=&quot;color: rgb(0, 0, 0); font-family: Helvetica; font-size: 11px; font-style: normal; font-variant-ligatures: normal; font-variant-caps: normal; font-weight: 400; letter-spacing: normal; orphans: 2; text-align: center; text-indent: 0px; text-transform: none; widows: 2; word-spacing: 0px; -webkit-text-stroke-width: 0px; white-space: nowrap; background-color: rgb(255, 255, 255); text-decoration-thickness: initial; text-decoration-style: initial; text-decoration-color: initial; display: inline !important; float: none;&quot;&gt;5: Create&lt;/span&gt;" style="text;whiteSpace=wrap;html=1;" parent="1" vertex="1">
          <mxGeometry x="640" y="320" width="50" height="30" as="geometry" />
        </mxCell>
        <mxCell id="SsDi411Ci2IOwW0wJX5i-26" value="" style="endArrow=none;html=1;rounded=0;exitX=1.009;exitY=0.548;exitDx=0;exitDy=0;exitPerimeter=0;entryX=0;entryY=0.5;entryDx=0;entryDy=0;" parent="1" source="SsDi411Ci2IOwW0wJX5i-6" target="SsDi411Ci2IOwW0wJX5i-8" edge="1">
          <mxGeometry width="50" height="50" relative="1" as="geometry">
            <mxPoint x="640" y="420" as="sourcePoint" />
            <mxPoint x="739" y="421" as="targetPoint" />
          </mxGeometry>
        </mxCell>
        <mxCell id="SsDi411Ci2IOwW0wJX5i-27" value="" style="endArrow=open;endFill=1;endSize=12;html=1;rounded=0;" parent="1" edge="1">
          <mxGeometry width="160" relative="1" as="geometry">
            <mxPoint x="650" y="350" as="sourcePoint" />
            <mxPoint x="680" y="350" as="targetPoint" />
          </mxGeometry>
        </mxCell>
        <mxCell id="SsDi411Ci2IOwW0wJX5i-28" value="&lt;span style=&quot;color: rgb(0, 0, 0); font-family: Helvetica; font-size: 11px; font-style: normal; font-variant-ligatures: normal; font-variant-caps: normal; font-weight: 400; letter-spacing: normal; orphans: 2; text-align: center; text-indent: 0px; text-transform: none; widows: 2; word-spacing: 0px; -webkit-text-stroke-width: 0px; white-space: nowrap; background-color: rgb(255, 255, 255); text-decoration-thickness: initial; text-decoration-style: initial; text-decoration-color: initial; display: inline !important; float: none;&quot;&gt;6: ShowOrder(Client)&lt;/span&gt;" style="text;whiteSpace=wrap;html=1;rotation=-30;" parent="1" vertex="1">
          <mxGeometry x="414" y="450" width="110" height="30" as="geometry" />
        </mxCell>
        <mxCell id="SsDi411Ci2IOwW0wJX5i-29" value="" style="endArrow=none;html=1;rounded=0;exitX=1.002;exitY=0.498;exitDx=0;exitDy=0;exitPerimeter=0;" parent="1" source="SsDi411Ci2IOwW0wJX5i-10" target="SsDi411Ci2IOwW0wJX5i-6" edge="1">
          <mxGeometry width="50" height="50" relative="1" as="geometry">
            <mxPoint x="414" y="490" as="sourcePoint" />
            <mxPoint x="504" y="490" as="targetPoint" />
          </mxGeometry>
        </mxCell>
        <mxCell id="SsDi411Ci2IOwW0wJX5i-30" value="" style="endArrow=open;endFill=1;endSize=12;html=1;rounded=0;" parent="1" edge="1">
          <mxGeometry width="160" relative="1" as="geometry">
            <mxPoint x="470" y="440" as="sourcePoint" />
            <mxPoint x="440" y="460" as="targetPoint" />
          </mxGeometry>
        </mxCell>
        <mxCell id="SsDi411Ci2IOwW0wJX5i-31" value="&lt;span style=&quot;color: rgb(0, 0, 0); font-family: Helvetica; font-size: 11px; font-style: normal; font-variant-ligatures: normal; font-variant-caps: normal; font-weight: 400; letter-spacing: normal; orphans: 2; text-align: center; text-indent: 0px; text-transform: none; widows: 2; word-spacing: 0px; -webkit-text-stroke-width: 0px; white-space: nowrap; background-color: rgb(255, 255, 255); text-decoration-thickness: initial; text-decoration-style: initial; text-decoration-color: initial; display: inline !important; float: none;&quot;&gt;7:&lt;/span&gt;" style="text;whiteSpace=wrap;html=1;rotation=45;" parent="1" vertex="1">
          <mxGeometry x="120" y="470" width="20" height="30" as="geometry" />
        </mxCell>
        <mxCell id="SsDi411Ci2IOwW0wJX5i-32" value="" style="endArrow=none;html=1;rounded=0;entryX=-0.003;entryY=0.498;entryDx=0;entryDy=0;entryPerimeter=0;" parent="1" source="SsDi411Ci2IOwW0wJX5i-1" target="SsDi411Ci2IOwW0wJX5i-10" edge="1">
          <mxGeometry width="50" height="50" relative="1" as="geometry">
            <mxPoint x="80" y="460" as="sourcePoint" />
            <mxPoint x="179" y="460" as="targetPoint" />
          </mxGeometry>
        </mxCell>
        <mxCell id="SsDi411Ci2IOwW0wJX5i-33" value="" style="endArrow=open;endFill=1;endSize=12;html=1;rounded=0;" parent="1" edge="1">
          <mxGeometry width="160" relative="1" as="geometry">
            <mxPoint x="150" y="475" as="sourcePoint" />
            <mxPoint x="130" y="455" as="targetPoint" />
          </mxGeometry>
        </mxCell>
        <mxCell id="OHAG2OCHnz7hjvBP90Fn-3" value=":InStockChecker" style="ellipse;shape=umlControl;whiteSpace=wrap;html=1;" vertex="1" parent="1">
          <mxGeometry x="340" y="310" width="90" height="100" as="geometry" />
        </mxCell>
        <mxCell id="OHAG2OCHnz7hjvBP90Fn-4" value="3: AmountCheck" style="text;whiteSpace=wrap;html=1;" vertex="1" parent="1">
          <mxGeometry x="240" y="320" width="100" height="30" as="geometry" />
        </mxCell>
      </root>
    </mxGraphModel>
  </diagram>
</mxfile>
